{
    "asset" : {
        "generator" : "Khronos glTF Blender I/O v1.5.17",
        "version" : "2.0"
    },
    "scene" : 0,
    "scenes" : [
        {
            "name" : "Scene",
            "nodes" : [
                0,
                1,
                2
            ]
        }
    ],
    "nodes" : [
        {
            "name" : "Light",
            "rotation" : [
                0.16907575726509094,
                0.7558803558349609,
                -0.27217137813568115,
                0.570947527885437
            ],
            "translation" : [
                4.076245307922363,
                5.903861999511719,
                -1.0054539442062378
            ]
        },
        {
            "name" : "Camera",
            "rotation" : [
                0.483536034822464,
                0.33687159419059753,
                -0.20870360732078552,
                0.7804827094078064
            ],
            "translation" : [
                7.358891487121582,
                4.958309173583984,
                6.925790786743164
            ]
        },
        {
            "mesh" : 0,
            "name" : "axe_rare"
        }
    ],
    "materials" : [
        {
            "doubleSided" : true,
            "name" : "White",
            "pbrMetallicRoughness" : {
                "baseColorFactor" : [
                    0.799102783203125,
                    0.799102783203125,
                    0.799102783203125,
                    1
                ],
                "metallicFactor" : 0,
                "roughnessFactor" : 0.5
            }
        },
        {
            "doubleSided" : true,
            "name" : "Metal",
            "pbrMetallicRoughness" : {
                "baseColorFactor" : [
                    0.40126433968544006,
                    0.47849249839782715,
                    0.5173344612121582,
                    1
                ],
                "metallicFactor" : 0.20000000298023224,
                "roughnessFactor" : 0.30000001192092896
            }
        },
        {
            "doubleSided" : true,
            "name" : "Gold",
            "pbrMetallicRoughness" : {
                "baseColorFactor" : [
                    0.49687275290489197,
                    0.3342590034008026,
                    0.10588642954826355,
                    1
                ],
                "metallicFactor" : 0.40909093618392944,
                "roughnessFactor" : 0.2340908944606781
            }
        },
        {
            "doubleSided" : true,
            "name" : "Red",
            "pbrMetallicRoughness" : {
                "baseColorFactor" : [
                    1,
                    0.02505292184650898,
                    0.11802464723587036,
                    1
                ],
                "metallicFactor" : 0,
                "roughnessFactor" : 0.20000000298023224
            }
        }
    ],
    "meshes" : [
        {
            "name" : "Cube.016",
            "primitives" : [
                {
                    "attributes" : {
                        "POSITION" : 0,
                        "NORMAL" : 1,
                        "TEXCOORD_0" : 2
                    },
                    "indices" : 3,
                    "material" : 0
                },
                {
                    "attributes" : {
                        "POSITION" : 4,
                        "NORMAL" : 5,
                        "TEXCOORD_0" : 6
                    },
                    "indices" : 7,
                    "material" : 1
                },
                {
                    "attributes" : {
                        "POSITION" : 8,
                        "NORMAL" : 9,
                        "TEXCOORD_0" : 10
                    },
                    "indices" : 11,
                    "material" : 2
                },
                {
                    "attributes" : {
                        "POSITION" : 12,
                        "NORMAL" : 13,
                        "TEXCOORD_0" : 14
                    },
                    "indices" : 15,
                    "material" : 3
                }
            ]
        }
    ],
    "accessors" : [
        {
            "bufferView" : 0,
            "componentType" : 5126,
            "count" : 52,
            "max" : [
                0.05785370618104935,
                0.057844921946525574,
                0.1917666345834732
            ],
            "min" : [
                -0.0578535720705986,
                -0.057862404733896255,
                -0.11783473193645477
            ],
            "type" : "VEC3"
        },
        {
            "bufferView" : 1,
            "componentType" : 5126,
            "count" : 52,
            "type" : "VEC3"
        },
        {
            "bufferView" : 2,
            "componentType" : 5126,
            "count" : 52,
            "type" : "VEC2"
        },
        {
            "bufferView" : 3,
            "componentType" : 5123,
            "count" : 216,
            "type" : "SCALAR"
        },
        {
            "bufferView" : 4,
            "componentType" : 5126,
            "count" : 92,
            "max" : [
                0.027117816731333733,
                -0.24545975029468536,
                0.7421837449073792
            ],
            "min" : [
                -0.027121132239699364,
                -0.40399447083473206,
                0.23553813993930817
            ],
            "type" : "VEC3"
        },
        {
            "bufferView" : 5,
            "componentType" : 5126,
            "count" : 92,
            "type" : "VEC3"
        },
        {
            "bufferView" : 6,
            "componentType" : 5126,
            "count" : 92,
            "type" : "VEC2"
        },
        {
            "bufferView" : 7,
            "componentType" : 5123,
            "count" : 174,
            "type" : "SCALAR"
        },
        {
            "bufferView" : 8,
            "componentType" : 5126,
            "count" : 488,
            "max" : [
                0.12278631329536438,
                0.1227831318974495,
                0.6577164530754089
            ],
            "min" : [
                -0.12277352064847946,
                -0.3152591586112976,
                -0.1883213371038437
            ],
            "type" : "VEC3"
        },
        {
            "bufferView" : 9,
            "componentType" : 5126,
            "count" : 488,
            "type" : "VEC3"
        },
        {
            "bufferView" : 10,
            "componentType" : 5126,
            "count" : 488,
            "type" : "VEC2"
        },
        {
            "bufferView" : 11,
            "componentType" : 5123,
            "count" : 1407,
            "type" : "SCALAR"
        },
        {
            "bufferView" : 12,
            "componentType" : 5126,
            "count" : 228,
            "max" : [
                0.13772951066493988,
                0.13772635161876678,
                0.6252176761627197
            ],
            "min" : [
                -0.13771674036979675,
                -0.04711243137717247,
                -0.20819315314292908
            ],
            "type" : "VEC3"
        },
        {
            "bufferView" : 13,
            "componentType" : 5126,
            "count" : 228,
            "type" : "VEC3"
        },
        {
            "bufferView" : 14,
            "componentType" : 5126,
            "count" : 228,
            "type" : "VEC2"
        },
        {
            "bufferView" : 15,
            "componentType" : 5123,
            "count" : 336,
            "type" : "SCALAR"
        }
    ],
    "bufferViews" : [
        {
            "buffer" : 0,
            "byteLength" : 624,
            "byteOffset" : 0
        },
        {
            "buffer" : 0,
            "byteLength" : 624,
            "byteOffset" : 624
        },
        {
            "buffer" : 0,
            "byteLength" : 416,
            "byteOffset" : 1248
        },
        {
            "buffer" : 0,
            "byteLength" : 432,
            "byteOffset" : 1664
        },
        {
            "buffer" : 0,
            "byteLength" : 1104,
            "byteOffset" : 2096
        },
        {
            "buffer" : 0,
            "byteLength" : 1104,
            "byteOffset" : 3200
        },
        {
            "buffer" : 0,
            "byteLength" : 736,
            "byteOffset" : 4304
        },
        {
            "buffer" : 0,
            "byteLength" : 348,
            "byteOffset" : 5040
        },
        {
            "buffer" : 0,
            "byteLength" : 5856,
            "byteOffset" : 5388
        },
        {
            "buffer" : 0,
            "byteLength" : 5856,
            "byteOffset" : 11244
        },
        {
            "buffer" : 0,
            "byteLength" : 3904,
            "byteOffset" : 17100
        },
        {
            "buffer" : 0,
            "byteLength" : 2814,
            "byteOffset" : 21004
        },
        {
            "buffer" : 0,
            "byteLength" : 2736,
            "byteOffset" : 23820
        },
        {
            "buffer" : 0,
            "byteLength" : 2736,
            "byteOffset" : 26556
        },
        {
            "buffer" : 0,
            "byteLength" : 1824,
            "byteOffset" : 29292
        },
        {
            "buffer" : 0,
            "byteLength" : 672,
            "byteOffset" : 31116
        }
    ],
    "buffers" : [
        {
            "byteLength" : 31788,
            "uri" : "data:application/octet-stream;base64,"
        }
    ]
}
