{
    "asset" : {
        "generator" : "Khronos glTF Blender I/O v1.4.40",
        "version" : "2.0"
    },
    "scene" : 0,
    "scenes" : [
        {
            "name" : "Scene",
            "nodes" : [
                0,
                1,
                9
            ]
        }
    ],
    "nodes" : [
        {
            "name" : "Light",
            "rotation" : [
                0.16907575726509094,
                0.7558803558349609,
                -0.27217137813568115,
                0.570947527885437
            ],
            "translation" : [
                4.076245307922363,
                5.903861999511719,
                -1.0054539442062378
            ]
        },
        {
            "name" : "Camera",
            "rotation" : [
                0.483536034822464,
                0.33687159419059753,
                -0.20870360732078552,
                0.7804827094078064
            ],
            "translation" : [
                7.358891487121582,
                4.958309173583984,
                6.925790786743164
            ]
        },
        {
            "name" : "Head",
            "rotation" : [
                -0.10404767841100693,
                9.57110238880366e-17,
                -8.917111823648861e-16,
                0.9945723414421082
            ],
            "translation" : [
                0,
                0.7115979194641113,
                4.618527782440651e-14
            ]
        },
        {
            "name" : "handSlotLeft",
            "rotation" : [
                0.7634545564651489,
                -0.5154708623886108,
                0.3752940595149994,
                0.10286636650562286
            ],
            "scale" : [
                1.000000238418579,
                1.0000001192092896,
                1.0000003576278687
            ],
            "translation" : [
                -5.960463766996327e-08,
                0.5509223341941833,
                2.77113691993236e-08
            ]
        },
        {
            "children" : [
                3
            ],
            "name" : "armLeft",
            "rotation" : [
                -0.5117864608764648,
                -0.3279973864555359,
                0.7932344675064087,
                0.03565911203622818
            ],
            "scale" : [
                1.0000007152557373,
                1.0000001192092896,
                1
            ],
            "translation" : [
                0.1215471476316452,
                0.6708660125732422,
                -0.0663059651851654
            ]
        },
        {
            "name" : "handSlotRight",
            "rotation" : [
                0.5767437219619751,
                -0.31747010350227356,
                0.404400497674942,
                0.6348540782928467
            ],
            "scale" : [
                1.0000001192092896,
                1.0000001192092896,
                1.000000238418579
            ],
            "translation" : [
                -5.960477977851042e-08,
                0.5509223937988281,
                -4.052161628465001e-08
            ]
        },
        {
            "children" : [
                5
            ],
            "name" : "armRight",
            "rotation" : [
                -0.5117589235305786,
                0.4776938557624817,
                0.7131725549697876,
                0.03600560501217842
            ],
            "scale" : [
                0.9999985098838806,
                0.9999995231628418,
                0.9999996423721313
            ],
            "translation" : [
                -0.12154724448919296,
                0.7123298048973083,
                0.06630581617355347
            ]
        },
        {
            "children" : [
                2,
                4,
                6
            ],
            "name" : "Body",
            "rotation" : [
                -0.5922735333442688,
                -1.3418899238309967e-15,
                -8.80478996088702e-16,
                0.8057370185852051
            ],
            "scale" : [
                1,
                0.9999998807907104,
                0.9999998807907104
            ]
        },
        {
            "mesh" : 0,
            "name" : "PrototypePete",
            "skin" : 0
        },
        {
            "children" : [
                8,
                7
            ],
            "name" : "KayKit Animated Character",
            "rotation" : [
                0.7071065902709961,
                0,
                0,
                0.7071069478988647
            ]
        }
    ],
    "animations" : [
        {
            "channels" : [
                {
                    "sampler" : 0,
                    "target" : {
                        "node" : 7,
                        "path" : "translation"
                    }
                },
                {
                    "sampler" : 1,
                    "target" : {
                        "node" : 7,
                        "path" : "rotation"
                    }
                },
                {
                    "sampler" : 2,
                    "target" : {
                        "node" : 7,
                        "path" : "scale"
                    }
                },
                {
                    "sampler" : 3,
                    "target" : {
                        "node" : 2,
                        "path" : "translation"
                    }
                },
                {
                    "sampler" : 4,
                    "target" : {
                        "node" : 2,
                        "path" : "rotation"
                    }
                },
                {
                    "sampler" : 5,
                    "target" : {
                        "node" : 2,
                        "path" : "scale"
                    }
                },
                {
                    "sampler" : 6,
                    "target" : {
                        "node" : 4,
                        "path" : "translation"
                    }
                },
                {
                    "sampler" : 7,
                    "target" : {
                        "node" : 4,
                        "path" : "rotation"
                    }
                },
                {
                    "sampler" : 8,
                    "target" : {
                        "node" : 4,
                        "path" : "scale"
                    }
                },
                {
                    "sampler" : 9,
                    "target" : {
                        "node" : 3,
                        "path" : "translation"
                    }
                },
                {
                    "sampler" : 10,
                    "target" : {
                        "node" : 3,
                        "path" : "rotation"
                    }
                },
                {
                    "sampler" : 11,
                    "target" : {
                        "node" : 3,
                        "path" : "scale"
                    }
                },
                {
                    "sampler" : 12,
                    "target" : {
                        "node" : 6,
                        "path" : "translation"
                    }
                },
                {
                    "sampler" : 13,
                    "target" : {
                        "node" : 6,
                        "path" : "rotation"
                    }
                },
                {
                    "sampler" : 14,
                    "target" : {
                        "node" : 6,
                        "path" : "scale"
                    }
                },
                {
                    "sampler" : 15,
                    "target" : {
                        "node" : 5,
                        "path" : "translation"
                    }
                },
                {
                    "sampler" : 16,
                    "target" : {
                        "node" : 5,
                        "path" : "rotation"
                    }
                },
                {
                    "sampler" : 17,
                    "target" : {
                        "node" : 5,
                        "path" : "scale"
                    }
                },
                {
                    "sampler" : 18,
                    "target" : {
                        "node" : 9,
                        "path" : "translation"
                    }
                },
                {
                    "sampler" : 19,
                    "target" : {
                        "node" : 9,
                        "path" : "rotation"
                    }
                },
                {
                    "sampler" : 20,
                    "target" : {
                        "node" : 9,
                        "path" : "scale"
                    }
                }
            ],
            "name" : "KayKit Animated Character|KayKit Animated Character|Run|KayKit ",
            "samplers" : [
                {
                    "input" : 7,
                    "interpolation" : "LINEAR",
                    "output" : 8
                },
                {
                    "input" : 7,
                    "interpolation" : "LINEAR",
                    "output" : 9
                },
                {
                    "input" : 7,
                    "interpolation" : "LINEAR",
                    "output" : 10
                },
                {
                    "input" : 7,
                    "interpolation" : "LINEAR",
                    "output" : 11
                },
                {
                    "input" : 7,
                    "interpolation" : "LINEAR",
                    "output" : 12
                },
                {
                    "input" : 7,
                    "interpolation" : "LINEAR",
                    "output" : 13
                },
                {
                    "input" : 7,
                    "interpolation" : "LINEAR",
                    "output" : 14
                },
                {
                    "input" : 7,
                    "interpolation" : "LINEAR",
                    "output" : 15
                },
                {
                    "input" : 7,
                    "interpolation" : "LINEAR",
                    "output" : 16
                },
                {
                    "input" : 7,
                    "interpolation" : "LINEAR",
                    "output" : 17
                },
                {
                    "input" : 7,
                    "interpolation" : "LINEAR",
                    "output" : 18
                },
                {
                    "input" : 7,
                    "interpolation" : "LINEAR",
                    "output" : 19
                },
                {
                    "input" : 7,
                    "interpolation" : "LINEAR",
                    "output" : 20
                },
                {
                    "input" : 7,
                    "interpolation" : "LINEAR",
                    "output" : 21
                },
                {
                    "input" : 7,
                    "interpolation" : "LINEAR",
                    "output" : 22
                },
                {
                    "input" : 7,
                    "interpolation" : "LINEAR",
                    "output" : 23
                },
                {
                    "input" : 7,
                    "interpolation" : "LINEAR",
                    "output" : 24
                },
                {
                    "input" : 7,
                    "interpolation" : "LINEAR",
                    "output" : 25
                },
                {
                    "input" : 7,
                    "interpolation" : "LINEAR",
                    "output" : 26
                },
                {
                    "input" : 7,
                    "interpolation" : "LINEAR",
                    "output" : 27
                },
                {
                    "input" : 7,
                    "interpolation" : "LINEAR",
                    "output" : 28
                }
            ]
        }
    ],
    "materials" : [
        {
            "doubleSided" : true,
            "name" : "PrototypePete",
            "pbrMetallicRoughness" : {
                "baseColorFactor" : [
                    1,
                    0.6507331728935242,
                    0.03768175467848778,
                    1
                ],
                "metallicFactor" : 0,
                "roughnessFactor" : 0.5
            }
        }
    ],
    "meshes" : [
        {
            "name" : "PrototypePete_body",
            "primitives" : [
                {
                    "attributes" : {
                        "POSITION" : 0,
                        "NORMAL" : 1,
                        "TEXCOORD_0" : 2,
                        "JOINTS_0" : 3,
                        "WEIGHTS_0" : 4
                    },
                    "indices" : 5,
                    "material" : 0
                }
            ]
        }
    ],
    "skins" : [
        {
            "inverseBindMatrices" : 6,
            "joints" : [
                7,
                2,
                4,
                3,
                6,
                5
            ],
            "name" : "KayKit Animated Character"
        }
    ],
    "accessors" : [
        {
            "bufferView" : 0,
            "componentType" : 5126,
            "count" : 3652,
            "max" : [
                0.5877271294593811,
                1.8993549346923828,
                0.5905290246009827
            ],
            "min" : [
                -0.5877278447151184,
                -7.837705595648004e-08,
                -0.5274248123168945
            ],
            "type" : "VEC3"
        },
        {
            "bufferView" : 1,
            "componentType" : 5126,
            "count" : 3652,
            "type" : "VEC3"
        },
        {
            "bufferView" : 2,
            "componentType" : 5126,
            "count" : 3652,
            "type" : "VEC2"
        },
        {
            "bufferView" : 3,
            "componentType" : 5121,
            "count" : 3652,
            "type" : "VEC4"
        },
        {
            "bufferView" : 4,
            "componentType" : 5126,
            "count" : 3652,
            "type" : "VEC4"
        },
        {
            "bufferView" : 5,
            "componentType" : 5123,
            "count" : 14637,
            "type" : "SCALAR"
        },
        {
            "bufferView" : 6,
            "componentType" : 5126,
            "count" : 6,
            "type" : "MAT4"
        },
        {
            "bufferView" : 7,
            "componentType" : 5126,
            "count" : 25,
            "max" : [
                0.8333333333333334
            ],
            "min" : [
                0.03333333333333333
            ],
            "type" : "SCALAR"
        },
        {
            "bufferView" : 8,
            "componentType" : 5126,
            "count" : 25,
            "type" : "VEC3"
        },
        {
            "bufferView" : 9,
            "componentType" : 5126,
            "count" : 25,
            "type" : "VEC4"
        },
        {
            "bufferView" : 10,
            "componentType" : 5126,
            "count" : 25,
            "type" : "VEC3"
        },
        {
            "bufferView" : 11,
            "componentType" : 5126,
            "count" : 25,
            "type" : "VEC3"
        },
        {
            "bufferView" : 12,
            "componentType" : 5126,
            "count" : 25,
            "type" : "VEC4"
        },
        {
            "bufferView" : 13,
            "componentType" : 5126,
            "count" : 25,
            "type" : "VEC3"
        },
        {
            "bufferView" : 14,
            "componentType" : 5126,
            "count" : 25,
            "type" : "VEC3"
        },
        {
            "bufferView" : 15,
            "componentType" : 5126,
            "count" : 25,
            "type" : "VEC4"
        },
        {
            "bufferView" : 16,
            "componentType" : 5126,
            "count" : 25,
            "type" : "VEC3"
        },
        {
            "bufferView" : 17,
            "componentType" : 5126,
            "count" : 25,
            "type" : "VEC3"
        },
        {
            "bufferView" : 18,
            "componentType" : 5126,
            "count" : 25,
            "type" : "VEC4"
        },
        {
            "bufferView" : 19,
            "componentType" : 5126,
            "count" : 25,
            "type" : "VEC3"
        },
        {
            "bufferView" : 20,
            "componentType" : 5126,
            "count" : 25,
            "type" : "VEC3"
        },
        {
            "bufferView" : 21,
            "componentType" : 5126,
            "count" : 25,
            "type" : "VEC4"
        },
        {
            "bufferView" : 22,
            "componentType" : 5126,
            "count" : 25,
            "type" : "VEC3"
        },
        {
            "bufferView" : 23,
            "componentType" : 5126,
            "count" : 25,
            "type" : "VEC3"
        },
        {
            "bufferView" : 24,
            "componentType" : 5126,
            "count" : 25,
            "type" : "VEC4"
        },
        {
            "bufferView" : 25,
            "componentType" : 5126,
            "count" : 25,
            "type" : "VEC3"
        },
        {
            "bufferView" : 26,
            "componentType" : 5126,
            "count" : 25,
            "type" : "VEC3"
        },
        {
            "bufferView" : 27,
            "componentType" : 5126,
            "count" : 25,
            "type" : "VEC4"
        },
        {
            "bufferView" : 28,
            "componentType" : 5126,
            "count" : 25,
            "type" : "VEC3"
        }
    ],
    "bufferViews" : [
        {
            "buffer" : 0,
            "byteLength" : 43824,
            "byteOffset" : 0
        },
        {
            "buffer" : 0,
            "byteLength" : 43824,
            "byteOffset" : 43824
        },
        {
            "buffer" : 0,
            "byteLength" : 29216,
            "byteOffset" : 87648
        },
        {
            "buffer" : 0,
            "byteLength" : 14608,
            "byteOffset" : 116864
        },
        {
            "buffer" : 0,
            "byteLength" : 58432,
            "byteOffset" : 131472
        },
        {
            "buffer" : 0,
            "byteLength" : 29274,
            "byteOffset" : 189904
        },
        {
            "buffer" : 0,
            "byteLength" : 384,
            "byteOffset" : 219180
        },
        {
            "buffer" : 0,
            "byteLength" : 100,
            "byteOffset" : 219564
        },
        {
            "buffer" : 0,
            "byteLength" : 300,
            "byteOffset" : 219664
        },
        {
            "buffer" : 0,
            "byteLength" : 400,
            "byteOffset" : 219964
        },
        {
            "buffer" : 0,
            "byteLength" : 300,
            "byteOffset" : 220364
        },
        {
            "buffer" : 0,
            "byteLength" : 300,
            "byteOffset" : 220664
        },
        {
            "buffer" : 0,
            "byteLength" : 400,
            "byteOffset" : 220964
        },
        {
            "buffer" : 0,
            "byteLength" : 300,
            "byteOffset" : 221364
        },
        {
            "buffer" : 0,
            "byteLength" : 300,
            "byteOffset" : 221664
        },
        {
            "buffer" : 0,
            "byteLength" : 400,
            "byteOffset" : 221964
        },
        {
            "buffer" : 0,
            "byteLength" : 300,
            "byteOffset" : 222364
        },
        {
            "buffer" : 0,
            "byteLength" : 300,
            "byteOffset" : 222664
        },
        {
            "buffer" : 0,
            "byteLength" : 400,
            "byteOffset" : 222964
        },
        {
            "buffer" : 0,
            "byteLength" : 300,
            "byteOffset" : 223364
        },
        {
            "buffer" : 0,
            "byteLength" : 300,
            "byteOffset" : 223664
        },
        {
            "buffer" : 0,
            "byteLength" : 400,
            "byteOffset" : 223964
        },
        {
            "buffer" : 0,
            "byteLength" : 300,
            "byteOffset" : 224364
        },
        {
            "buffer" : 0,
            "byteLength" : 300,
            "byteOffset" : 224664
        },
        {
            "buffer" : 0,
            "byteLength" : 400,
            "byteOffset" : 224964
        },
        {
            "buffer" : 0,
            "byteLength" : 300,
            "byteOffset" : 225364
        },
        {
            "buffer" : 0,
            "byteLength" : 300,
            "byteOffset" : 225664
        },
        {
            "buffer" : 0,
            "byteLength" : 400,
            "byteOffset" : 225964
        },
        {
            "buffer" : 0,
            "byteLength" : 300,
            "byteOffset" : 226364
        }
    ],
    "buffers" : [
        {
            "byteLength" : 226664,
            "uri" : "data:application/octet-stream;base64,"
        }
    ]
}
